#!OML:ASF I:\Random Stuff\random\construction\7_22_03\Session 2\subj1.ASF
:FULLY-SPECIFIED
:DEGREES
844
root -9.25693 17.9307 0.837544 -146.131 -56.7309 -196.574
lowerback 21.2415 0.599716 13.3072
upperback 6.61253 2.75536 8.56313
thorax -4.25588 0.800139 1.18182
lowerneck -26.1492 -7.84057 -4.81047
upperneck 23.2788 -10.4891 3.90758
head 12.5113 -4.56277 0.34009
rclavicle -6.36111e-014 -1.24042e-013
rhumerus 7.12024 -0.20001 -59.0462
rradius 45.4453
rwrist -18.1587
rhand -24.8733 35.3988
rfingers 7.12502
rthumb 1.63394 5.4253
lclavicle -6.36111e-014 -1.24042e-013
lhumerus -24.9561 -19.0581 93.1786
lradius 56.4168
lwrist 40.1989
lhand -11.3752 57.1467
lfingers 7.12502
lthumb -165.341 626.609
rfemur -35.3011 -6.91431 17.4848
rtibia 28.8387
rfoot -9.15166 -21.5519
rtoes -1.39369
lfemur -28.4042 -6.90112 -19.5962
ltibia 17.0965
lfoot -1.93281 9.10282
ltoes -31.4698
845
root -9.28298 17.9302 0.851368 -147.04 -56.4927 -195.912
lowerback 21.0736 0.624212 13.1367
upperback 6.55159 2.74509 8.44483
thorax -4.2453 0.803525 1.14627
lowerneck -26.1892 -7.81514 -4.79161
upperneck 23.7525 -10.4695 3.75469
head 12.695 -4.56832 0.273575
rclavicle -3.18055e-015 -7.31528e-014
rhumerus 5.9317 -0.190422 -59.7474
rradius 45.0937
rwrist -17.5121
rhand -24.8309 35.5248
rfingers 7.12502
rthumb 1.67493 5.55162
lclavicle -3.18055e-015 -7.31528e-014
lhumerus -25.1316 -18.838 93.4047
lradius 56.1103
lwrist 40.2411
lhand -11.3694 57.1726
lfingers 7.12502
lthumb -165.335 626.634
rfemur -34.736 -6.45937 17.5408
rtibia 28.534
rfoot -9.02834 -21.6097
rtoes -1.27866
lfemur -28.1085 -6.4082 -19.5558
ltibia 17.4795
lfoot -2.17098 8.59552
ltoes -32.3234
846
root -9.30455 17.9305 0.86723 -147.903 -56.3429 -195.271
lowerback 20.9362 0.588405 12.9854
upperback 6.45364 2.67554 8.32829
thorax -4.29441 0.775603 1.11648
lowerneck -26.1111 -7.70751 -4.7737
upperneck 24.1181 -10.3546 3.69115
head 12.8162 -4.52549 0.264707
rclavicle -6.36111e-015 -9.22361e-014
rhumerus 4.76954 0.0680975 -60.4799
rradius 44.8416
rwrist -17.3125
rhand -25.1335 35.271
rfingers 7.12502
rthumb 1.38266 5.29572
lclavicle -6.36111e-015 -9.22361e-014
lhumerus -25.3932 -18.543 93.5834
lradius 55.8245
lwrist 40.2029
lhand -11.2959 57.1221
lfingers 7.12502
lthumb -165.265 626.578
rfemur -34.1902 -5.98966 17.6254
rtibia 28.2316
rfoot -8.93987 -21.7657
rtoes -1.10163
lfemur -27.8709 -5.55265 -19.5942
ltibia 17.8573
lfoot -2.31649 7.71539
ltoes -33.0319
847
root -9.32469 17.9298 0.884299 -148.656 -56.1769 -194.743
lowerback 20.8 0.550714 12.7917
upperback 6.35698 2.59674 8.20529
thorax -4.34568 0.744099 1.10477
lowerneck -25.9371 -7.63074 -4.95026
upperneck 24.3619 -10.2548 3.81181
head 12.8959 -4.48568 0.358362
rclavicle -3.18055e-015 -7.95139e-014
rhumerus 3.71631 0.281981 -61.2504
rradius 44.5581
rwrist -17.1609
rhand -25.541 34.5678
rfingers 7.12502
rthumb 0.989091 4.59035
lclavicle -3.18055e-015 -7.95139e-014
lhumerus -25.6167 -18.1611 93.7744
lradius 55.5449
lwrist 39.9953
lhand -11.1521 57.1266
lfingers 7.12502
lthumb -165.126 626.573
rfemur -33.6753 -5.55272 17.6578
rtibia 27.9355
rfoot -8.83548 -21.9135
rtoes -1.2612
lfemur -27.6514 -4.72916 -19.6658
ltibia 18.2221
lfoot -2.42747 6.9895
ltoes -33.8734
848
root -9.34498 17.9297 0.902511 -149.249 -55.9522 -194.337
lowerback 20.6451 0.544244 12.5588
upperback 6.26735 2.55078 8.00804
thorax -4.37635 0.733867 1.02521
lowerneck -26.02 -7.58363 -4.92325
upperneck 24.7394 -10.2298 3.77977
head 13.0602 -4.47213 0.337576
rclavicle -1.59028e-014 -1.20861e-013
rhumerus 2.69655 0.302519 -62.0932
rradius 44.0987
rwrist -17.0546
rhand -25.7661 34.3539
rfingers 7.12502
rthumb 0.771688 4.37558
lclavicle -1.59028e-014 -1.20861e-013
lhumerus -25.7621 -17.9611 93.8832
lradius 55.266
lwrist 39.8621
lhand -11.1865 57.1993
lfingers 7.12502
lthumb -165.159 626.648
rfemur -33.2421 -5.14307 17.6062
rtibia 27.6377
rfoot -8.7891 -22.0141
rtoes -0.930642
lfemur -27.4975 -4.12413 -19.7411
ltibia 18.6008
lfoot -2.48867 6.42033
ltoes -35.1201
849
root -9.36624 17.9326 0.921404 -149.754 -55.7134 -193.96
lowerback 20.4131 0.551159 12.3296
upperback 6.10784 2.52573 7.86821
thorax -4.44493 0.731303 1.00275
lowerneck -25.8674 -7.58902 -5.17261
upperneck 25.14 -10.1984 3.76682
head 13.2072 -4.48703 0.37556
rclavicle 2.22639e-014 3.81667e-014
rhumerus 1.48522 0.548478 -62.7187
rradius 43.6906
rwrist -17.0029
rhand -26.0432 34.2725
rfingers 7.12502
rthumb 0.503992 4.29339
lclavicle 2.22639e-014 3.81667e-014
lhumerus -26.0364 -17.801 94.1864
lradius 54.9318
lwrist 39.8445
lhand -11.5138 57.1704
lfingers 7.12502
lthumb -165.474 626.642
rfemur -32.8742 -4.71935 17.5301
rtibia 27.3337
rfoot -8.78007 -22.1203
rtoes -0.27657
lfemur -27.428 -3.60335 -19.8051
ltibia 19.0158
lfoot -2.61293 5.8887
ltoes -35.6741
850
root -9.38754 17.9374 0.942086 -150.301 -55.4773 -193.508
lowerback 20.1425 0.726686 12.3448
upperback 5.97885 2.75011 7.72612
thorax -4.42497 0.851341 0.788649
lowerneck -25.7915 -7.81386 -5.60662
upperneck 25.4815 -10.4209 3.83184
head 13.376 -4.61585 0.420771
rclavicle 6.04305e-014 1.59028e-014
rhumerus 0.0818028 0.300218 -63.0699
rradius 43.2499
rwrist -16.78
rhand -26.409 34.1875
rfingers 7.12502
rthumb 0.150765 4.20785
lclavicle 6.04305e-014 1.59028e-014
lhumerus -26.1277 -18.1635 94.6781
lradius 54.5301
lwrist 39.8509
lhand -11.6834 57.0769
lfingers 7.12502
lthumb -165.638 626.56
rfemur -32.5143 -4.2522 17.4955
rtibia 27.013
rfoot -8.74746 -22.2354
rtoes 0.164418
lfemur -27.4081 -3.1003 -19.8052
ltibia 19.4787
lfoot -2.89648 5.55897
ltoes -35.4887
851
root -9.40957 17.941 0.964365 -150.886 -55.2445 -193.026
lowerback 19.8937 0.847599 12.3116
upperback 5.87707 2.89265 7.54691
thorax -4.39174 0.933504 0.580399
lowerneck -25.8288 -7.91162 -5.78119
upperneck 25.8208 -10.5424 3.85566
head 13.5438 -4.67909 0.425695
rclavicle 2.8625e-014 2.22639e-014
rhumerus -1.16108 0.241279 -63.5535
rradius 42.6901
rwrist -16.4428
rhand -26.6198 34.1995
rfingers 7.12502
rthumb -0.0528342 4.21972
lclavicle 2.8625e-014 2.22639e-014
lhumerus -26.2069 -18.3313 94.9619
lradius 54.1704
lwrist 39.781
lhand -11.5482 57.0467
lfingers 7.12502
lthumb -165.508 626.521
rfemur -32.1253 -3.85122 17.5002
rtibia 26.6735
rfoot -8.73148 -22.2741
rtoes 0.639974
lfemur -27.4192 -2.52263 -19.7996
ltibia 20.0048
lfoot -3.05349 5.10488
ltoes -35.4739
852
root -9.43254 17.9437 0.988519 -151.363 -55.1045 -192.637
lowerback 19.6005 0.768155 12.1186
upperback 5.70764 2.75427 7.40835
thorax -4.44302 0.87659 0.567088
lowerneck -25.5631 -7.76378 -5.85674
upperneck 25.988 -10.3101 3.74711
head 13.5454 -4.6123 0.447661
rclavicle -1.59028e-014 6.36111e-014
rhumerus -2.29906 0.987898 -64.1659
rradius 42.1114
rwrist -16.007
rhand -26.925 34.289
rfingers 7.12502
rthumb -0.347699 4.30953
lclavicle -1.59028e-014 6.36111e-014
lhumerus -26.4246 -17.858 95.0909
lradius 53.7967
lwrist 39.5516
lhand -11.363 57.0547
lfingers 7.12502
lthumb -165.329 626.516
rfemur -31.7642 -3.54985 17.5003
rtibia 26.3326
rfoot -8.61488 -22.3628
rtoes 0.606617
lfemur -27.5478 -1.93836 -19.8197
ltibia 20.6122
lfoot -3.02758 4.36004
ltoes -35.5963
